# xmcd
#
# Track frame offsets:
#	150
#	64513
#	90656
#	127380
#	150916
#	189364
#	222768
#
# Disc length: 3545 seconds
#
# Revision: 0
# Processed by: cddbd v1.5.2PL0 Copyright (c) Steve Scherf et al.
# Submitted via: EasyCDDAExtractor 9.0.0.1
#
DISCID=570dd707
DTITLE=Whitesnake - Anfiteatro De La Casa De Casa Campo Madrid 10-08-90 Disc 2
DYEAR=1990
DGENRE=Hard Rock
TTITLE0=Crying In The Rain (Incl Drum Solo)
TTITLE1=Fool For Your Loving
TTITLE2=Vai Solo
TTITLE3=Here I Go Again
TTITLE4=Bad Boys - Children Of The Night
TTITLE5=Ain't No Love In The Heart Of The City 
TTITLE6=Still Of The Night
EXTD=
EXTT0=
EXTT1=
EXTT2=
EXTT3=
EXTT4=
EXTT5=
EXTT6=
PLAYORDER=
